<svg xmlns="http://www.w3.org/2000/svg" height="580px" style="background:#FFFFFF;" version="1.1" viewBox="0 0 920 580" width="920px">
  <defs/>
  <g>
    <text font-family="sans-serif" font-size="16" font-weight="bold" text-anchor="middle" x="460" y="30">5. UML Component Diagram - Architektura systému BanManager</text>
    
    <rect fill="none" height="490" style="stroke:#777777;stroke-width:1.5;stroke-dasharray:4,4;" width="560" x="180" y="60"/>
    <text font-family="sans-serif" font-size="12" font-style="italic" fill="#555555" x="190" y="80">BanManager Aplikace (Docker Environment)</text>

    <g transform="translate(210, 120)">
      <rect fill="#F1F1F1" height="80" style="stroke:#181818;stroke-width:1.5;" width="160" x="0" y="0"/>
      <rect fill="#F1F1F1" height="16" style="stroke:#181818;stroke-width:1.0;" width="25" x="-10" y="15"/>
      <rect fill="#F1F1F1" height="6" style="stroke:#181818;stroke-width:1.0;" width="10" x="-15" y="20"/>
      <rect fill="#F1F1F1" height="6" style="stroke:#181818;stroke-width:1.0;" width="10" x="-15" y="30"/>
      <text font-family="sans-serif" font-size="14" font-weight="bold" text-anchor="middle" x="80" y="45">&lt;&lt;component&gt;&gt;</text>
      <text font-family="sans-serif" font-size="14" font-weight="bold" text-anchor="middle" x="80" y="63">React Frontend</text>
    </g>

    <g transform="translate(530, 240)">
      <rect fill="#F1F1F1" height="120" style="stroke:#181818;stroke-width:1.5;" width="180" x="0" y="0"/>
      <rect fill="#F1F1F1" height="16" style="stroke:#181818;stroke-width:1.0;" width="25" x="-10" y="15"/>
      <rect fill="#F1F1F1" height="6" style="stroke:#181818;stroke-width:1.0;" width="10" x="-15" y="20"/>
      <rect fill="#F1F1F1" height="6" style="stroke:#181818;stroke-width:1.0;" width="10" x="-15" y="30"/>
      <text font-family="sans-serif" font-size="14" font-weight="bold" text-anchor="middle" x="90" y="55">&lt;&lt;component&gt;&gt;</text>
      <text font-family="sans-serif" font-size="14" font-weight="bold" text-anchor="middle" x="90" y="75">BanManager</text>
      <text font-family="sans-serif" font-size="14" font-weight="bold" text-anchor="middle" x="90" y="93">Backend (Spring)</text>
    </g>

    <g transform="translate(210, 390)">
      <rect fill="#F1F1F1" height="80" style="stroke:#181818;stroke-width:1.5;" width="160" x="0" y="0"/>
      <rect fill="#F1F1F1" height="16" style="stroke:#181818;stroke-width:1.0;" width="25" x="-10" y="15"/>
      <rect fill="#F1F1F1" height="6" style="stroke:#181818;stroke-width:1.0;" width="10" x="-15" y="20"/>
      <rect fill="#F1F1F1" height="6" style="stroke:#181818;stroke-width:1.0;" width="10" x="-15" y="30"/>
      <text font-family="sans-serif" font-size="14" font-weight="bold" text-anchor="middle" x="80" y="45">&lt;&lt;component&gt;&gt;</text>
      <text font-family="sans-serif" font-size="14" font-weight="bold" text-anchor="middle" x="80" y="63">MySQL Database</text>
    </g>

    <g transform="translate(10, 260)">
      <rect fill="#F1F1F1" height="80" style="stroke:#181818;stroke-width:1.5;" width="120" x="0" y="0"/>
      <text font-family="sans-serif" font-size="13" font-weight="bold" text-anchor="middle" x="60" y="35">&lt;&lt;component&gt;&gt;</text>
      <text font-family="sans-serif" font-size="13" font-weight="bold" text-anchor="middle" x="60" y="52">Minecraft</text>
      <text font-family="sans-serif" font-size="13" font-weight="bold" text-anchor="middle" x="60" y="67">Server (Plugin)</text>
    </g>

    <g transform="translate(770, 120)">
      <rect fill="#F1F1F1" height="70" style="stroke:#181818;stroke-width:1.5;" width="130" x="0" y="0"/>
      <text font-family="sans-serif" font-size="13" font-weight="bold" text-anchor="middle" x="65" y="33">&lt;&lt;external system&gt;&gt;</text>
      <text font-family="sans-serif" font-size="13" font-weight="bold" text-anchor="middle" x="65" y="53">Microsoft OAuth</text>
    </g>


    <path d="M 445,160 A 15,15 0 0,1 445,190" fill="none" style="stroke:#181818;stroke-width:1.5;"/>
    <line style="stroke:#181818;stroke-width:1.5;" x1="371" x2="445" y1="175" y2="175"/>
    
    <circle cx="458" cy="175" r="8" style="stroke:#181818;stroke-width:1.5;fill:#FFFFFF;"/>
    <line style="stroke:#181818;stroke-width:1.5;" x1="458" x2="620" y1="167" y2="167"/>
    <line style="stroke:#181818;stroke-width:1.5;" x1="620" x2="620" y1="167" y2="240"/>
    <text font-family="sans-serif" font-size="12" font-weight="bold" x="400" y="153">REST API / JSON</text>

    <path d="M 390,285 A 15,15 0 0,0 390,315" fill="none" style="stroke:#181818;stroke-width:1.5;"/>
    <line style="stroke:#181818;stroke-width:1.5;" x1="130" x2="390" y1="300" y2="300"/>
    
    <circle cx="405" cy="300" r="8" style="stroke:#181818;stroke-width:1.5;fill:#FFFFFF;"/>
    <line style="stroke:#181818;stroke-width:1.5;" x1="413" x2="530" y1="300" y2="300"/>
    <text font-family="sans-serif" font-size="12" font-weight="bold" x="260" y="290">Secure Ban API</text>

    <circle cx="440" cy="330" r="8" style="stroke:#181818;stroke-width:1.5;fill:#FFFFFF;"/>
    <line style="stroke:#181818;stroke-width:1.5;" x1="371" x2="432" y1="330" y2="330"/>
    <line style="stroke:#181818;stroke-width:1.5;" x1="371" x2="371" y1="330" y2="390"/>
    
    <path d="M 450,315 A 15,15 0 0,1 450,345" fill="none" style="stroke:#181818;stroke-width:1.5 Pap;"/>
    <line style="stroke:#181818;stroke-width:1.5;" x1="453" x2="530" y1="330" y2="330"/>
    <text font-family="sans-serif" font-size="12" font-weight="bold" x="420" y="365">JDBC / SQL (Port 3306)</text>

    <path d="M 765,255 A 15,15 0 0,0 765,285" fill="none" style="stroke:#181818;stroke-width:1.5;"/>
    <line style="stroke:#181818;stroke-width:1.5;" x1="710" x2="765" y1="270" y2="270"/>
    
    <circle cx="780" cy="270" r="8" style="stroke:#181818;stroke-width:1.5;fill:#FFFFFF;"/>
    <line style="stroke:#181818;stroke-width:1.5;" x1="788" x2="835" y1="270" y2="270"/>
    <line style="stroke:#181818;stroke-width:1.5;" x1="835" x2="835" y1="270" y2="190"/>
    <text font-family="sans-serif" font-size="12" font-weight="bold" x="735" y="305">OAuth2 HTTPs</text>

  </g>
</svg>
